<svg viewBox="0 0 108 96" xmlns="http://www.w3.org/2000/svg" fill-rule="evenodd" clip-rule="evenodd" stroke-linejoin="round" stroke-miterlimit="2"><g transform="matrix(.63141 0 0 .73805 -1.37 1.827)"><path fill="none" d="M2.171-2.476h169.468V126.75H2.171z"/><clipPath id="a"><path d="M2.171-2.476h169.468V126.75H2.171z"/></clipPath><g clip-path="url(#a)"><path d="M135.297 51.462l-40.415 32.54c-2.079 2.034-5.348 2.798-7.725 2.798-2.971 0-5.942-.764-8.32-2.798l-39.82-32.54c-4.16-3.813-4.754-10.169 0-14.236 4.457-3.56 11.886-4.068 16.345 0L87.157 63.41l32.39-26.184c4.161-4.068 11.59-3.56 15.75 0 4.16 4.067 4.16 10.423 0 14.236M155.8-2.434H18.514C9.6-2.434 2.17 3.414 2.17 11.04v43.471c0 39.406 38.035 72.202 84.987 72.202 46.654 0 84.393-32.796 84.393-72.202V11.041c0-7.627-7.131-13.475-15.749-13.475" fill="#ef4056"/></g></g></svg>
