<?xml version="1.0" encoding="UTF-8" standalone="no"?>
<!DOCTYPE svg PUBLIC "-//W3C//DTD SVG 1.1//EN" "http://www.w3.org/Graphics/SVG/1.1/DTD/svg11.dtd">
<svg width="100%" height="100%" viewBox="0 0 108 96" version="1.1" xmlns="http://www.w3.org/2000/svg" xmlns:xlink="http://www.w3.org/1999/xlink" xml:space="preserve" xmlns:serif="http://www.serif.com/" style="fill-rule:evenodd;clip-rule:evenodd;stroke-linejoin:round;stroke-miterlimit:2;">
    <g id="アートボード1" transform="matrix(0.631411,0,0,0.738048,-1.37091,1.82728)">
        <rect x="2.171" y="-2.476" width="169.468" height="129.226" style="fill:none;"/>
        <clipPath id="_clip1">
            <rect x="2.171" y="-2.476" width="169.468" height="129.226"/>
        </clipPath>
        <g clip-path="url(#_clip1)">
            <g transform="matrix(1.58375,0,0,1.35493,2.16976,-62.7692)">
                <path d="M84.058,84.308L58.54,108.324C57.227,109.825 55.163,110.389 53.662,110.389C51.786,110.389 49.91,109.825 48.409,108.324L23.266,84.308C20.639,81.494 20.264,76.803 23.266,73.801C26.08,71.174 30.771,70.799 33.586,73.801L53.662,93.126L74.114,73.801C76.741,70.799 81.431,71.174 84.058,73.801C86.685,76.803 86.685,81.494 84.058,84.308M97.005,44.53L10.32,44.53C4.691,44.53 0,48.846 0,54.475L0,86.559C0,115.642 24.016,139.847 53.662,139.847C83.12,139.847 106.949,115.642 106.949,86.559L106.949,54.475C106.949,48.846 102.446,44.53 97.005,44.53" style="fill:rgb(239,64,86);"/>
            </g>
        </g>
    </g>
</svg>
